<svg width="38" height="38" viewBox="0 0 38 38" fill="none" xmlns="http://www.w3.org/2000/svg">
<path d="M21.6265 4.63426V7.72377H27.1722L11.9873 22.9087L14.1654 25.0868L29.3503 9.90187V15.4475H32.4398V4.63426M29.3503 29.3503H7.72377V7.72377H18.537V4.63426H7.72377C6.90438 4.63426 6.11855 4.95976 5.53916 5.53916C4.95976 6.11855 4.63426 6.90438 4.63426 7.72377V29.3503C4.63426 30.1697 4.95976 30.9555 5.53916 31.5349C6.11855 32.1143 6.90438 32.4398 7.72377 32.4398H29.3503C30.1697 32.4398 30.9555 32.1143 31.5349 31.5349C32.1143 30.9555 32.4398 30.1697 32.4398 29.3503V18.537H29.3503V29.3503Z" fill="#0FA958"/>
</svg>
